<svg width="297" height="40" viewBox="0 0 297 40" fill="none" xmlns="http://www.w3.org/2000/svg">
<path d="M36.795 39H27.445V27.56H27.17L25.465 36.855C25.2083 38.285 24.3467 39 22.88 39H19.085C13.1817 39 8.67167 37.35 5.555 34.05C2.43833 30.7133 0.88 25.8733 0.88 19.53C0.88 13.2233 2.43833 8.42 5.555 5.12C8.67167 1.78333 13.1817 0.114999 19.085 0.114999C24.6217 0.114999 28.9117 1.56333 31.955 4.46C34.9983 7.35667 36.6117 11.5367 36.795 17H27.115C26.9317 14.3233 26.18 12.3617 24.86 11.115C23.5767 9.83166 21.6517 9.19 19.085 9.19C16.115 9.19 13.9333 10.015 12.54 11.665C11.1833 13.315 10.505 15.9367 10.505 19.53C10.505 23.1233 11.1833 25.7633 12.54 27.45C13.8967 29.1 16.06 29.925 19.03 29.925H19.47C20.1667 29.925 20.735 29.7967 21.175 29.54C21.615 29.2833 21.9267 28.8067 22.11 28.11L22.275 27.56H17.985V18.76H28.82C34.1367 18.76 36.795 21.4183 36.795 26.735V39ZM39.1351 39V10.4H48.7601V20.575H49.0351C49.2917 17.1283 50.0251 14.58 51.2351 12.93C52.4451 11.2433 54.0767 10.4 56.1301 10.4H60.2551V19.475H54.4801C50.6667 19.475 48.7601 21.4917 48.7601 25.525V39H39.1351ZM76.0487 39C71.3187 39 67.6337 37.735 64.9937 35.205C62.3903 32.675 61.0887 29.1183 61.0887 24.535C61.0887 19.9883 62.3353 16.45 64.8287 13.92C67.322 11.39 70.842 10.125 75.3887 10.125C77.4053 10.125 79.202 10.3817 80.7787 10.895C82.3553 11.3717 83.6937 12.05 84.7937 12.93C85.8937 13.81 86.737 14.855 87.3237 16.065C87.9103 17.275 88.2037 18.5767 88.2037 19.97C88.2037 21.4 87.892 22.83 87.2687 24.26C86.682 25.6533 85.8387 26.735 84.7387 27.505H71.2637C72.107 29.1183 74.197 29.925 77.5337 29.925H86.9387V39H76.0487ZM70.9887 26.735C72.1987 26.515 73.2803 26.2033 74.2337 25.8C75.2237 25.36 76.067 24.8833 76.7637 24.37C77.4603 23.8567 77.992 23.325 78.3587 22.775C78.762 22.225 78.9637 21.6933 78.9637 21.18C78.9637 20.63 78.7253 20.1717 78.2487 19.805C77.772 19.4017 76.9837 19.2 75.8837 19.2C74.2337 19.2 72.9503 19.6767 72.0337 20.63C71.1537 21.5833 70.7137 22.9583 70.7137 24.755C70.7137 25.4517 70.8053 26.1117 70.9887 26.735ZM104.838 39C100.108 39 96.4227 37.735 93.7827 35.205C91.1794 32.675 89.8777 29.1183 89.8777 24.535C89.8777 19.9883 91.1244 16.45 93.6177 13.92C96.1111 11.39 99.6311 10.125 104.178 10.125C106.194 10.125 107.991 10.3817 109.568 10.895C111.144 11.3717 112.483 12.05 113.583 12.93C114.683 13.81 115.526 14.855 116.113 16.065C116.699 17.275 116.993 18.5767 116.993 19.97C116.993 21.4 116.681 22.83 116.058 24.26C115.471 25.6533 114.628 26.735 113.528 27.505H100.053C100.896 29.1183 102.986 29.925 106.323 29.925H115.728V39H104.838ZM99.7777 26.735C100.988 26.515 102.069 26.2033 103.023 25.8C104.013 25.36 104.856 24.8833 105.553 24.37C106.249 23.8567 106.781 23.325 107.148 22.775C107.551 22.225 107.753 21.6933 107.753 21.18C107.753 20.63 107.514 20.1717 107.038 19.805C106.561 19.4017 105.773 19.2 104.673 19.2C103.023 19.2 101.739 19.6767 100.823 20.63C99.9427 21.5833 99.5027 22.9583 99.5027 24.755C99.5027 25.4517 99.5944 26.1117 99.7777 26.735ZM119.272 10.4H128.897V15.845H129.172C129.685 14.2317 130.565 12.875 131.812 11.775C133.058 10.675 134.8 10.125 137.037 10.125C139.75 10.125 141.895 11.0233 143.472 12.82C145.048 14.6167 145.837 17.3117 145.837 20.905V39H136.212V20.3C136.212 17.88 134.983 16.67 132.527 16.67C130.107 16.67 128.897 17.88 128.897 20.3V39H119.272V10.4ZM148.759 0.499997H158.384V15.9H170.539V0.499997H180.164V39H170.539V24.975H158.384V39H148.759V0.499997ZM196.61 39.275C192.174 39.275 188.709 37.9917 186.215 35.425C183.759 32.8217 182.53 29.2283 182.53 24.645C182.53 20.0617 183.759 16.505 186.215 13.975C188.709 11.4083 192.174 10.125 196.61 10.125C198.81 10.125 200.79 10.455 202.55 11.115C204.31 11.775 205.795 12.7467 207.005 14.03C208.215 15.2767 209.132 16.7983 209.755 18.595C210.415 20.355 210.745 22.3717 210.745 24.645C210.745 26.9183 210.415 28.9717 209.755 30.805C209.132 32.6017 208.215 34.1417 207.005 35.425C205.795 36.6717 204.31 37.625 202.55 38.285C200.79 38.945 198.81 39.275 196.61 39.275ZM196.665 30.2C199.635 30.2 201.12 28.3667 201.12 24.7C201.12 22.83 200.754 21.455 200.02 20.575C199.324 19.6583 198.205 19.2 196.665 19.2C195.089 19.2 193.934 19.64 193.2 20.52C192.504 21.4 192.155 22.7933 192.155 24.7C192.155 26.57 192.504 27.9633 193.2 28.88C193.934 29.76 195.089 30.2 196.665 30.2ZM221.3 39.275C218.586 39.275 216.441 38.3767 214.865 36.58C213.288 34.7833 212.5 32.0883 212.5 28.495V10.4H222.125V29.1C222.125 31.52 223.353 32.73 225.81 32.73C228.23 32.73 229.44 31.52 229.44 29.1V10.4H239.065V39H229.44V33.555H229.165C228.651 35.1683 227.771 36.525 226.525 37.625C225.278 38.725 223.536 39.275 221.3 39.275ZM241.894 29.925H258.174C258.541 29.925 258.724 29.7417 258.724 29.375C258.724 29.0083 258.541 28.825 258.174 28.825L249.044 28.33C246.514 28.1833 244.589 27.4133 243.269 26.02C241.986 24.59 241.344 22.5 241.344 19.75C241.344 16.7067 242.132 14.3967 243.709 12.82C245.286 11.2067 247.614 10.4 250.694 10.4H266.699V19.475H250.419C250.052 19.475 249.869 19.6583 249.869 20.025C249.869 20.135 249.906 20.2633 249.979 20.41C250.089 20.52 250.236 20.575 250.419 20.575L259.549 21.07C262.079 21.2167 263.986 22.005 265.269 23.435C266.589 24.8283 267.249 26.9 267.249 29.65C267.249 32.6933 266.461 35.0217 264.884 36.635C263.307 38.2117 260.979 39 257.899 39H241.894V29.925ZM283.856 39C279.126 39 275.441 37.735 272.801 35.205C270.198 32.675 268.896 29.1183 268.896 24.535C268.896 19.9883 270.143 16.45 272.636 13.92C275.13 11.39 278.65 10.125 283.196 10.125C285.213 10.125 287.01 10.3817 288.586 10.895C290.163 11.3717 291.501 12.05 292.601 12.93C293.701 13.81 294.545 14.855 295.131 16.065C295.718 17.275 296.011 18.5767 296.011 19.97C296.011 21.4 295.7 22.83 295.076 24.26C294.49 25.6533 293.646 26.735 292.546 27.505H279.071C279.915 29.1183 282.005 29.925 285.341 29.925H294.746V39H283.856ZM278.796 26.735C280.006 26.515 281.088 26.2033 282.041 25.8C283.031 25.36 283.875 24.8833 284.571 24.37C285.268 23.8567 285.8 23.325 286.166 22.775C286.57 22.225 286.771 21.6933 286.771 21.18C286.771 20.63 286.533 20.1717 286.056 19.805C285.58 19.4017 284.791 19.2 283.691 19.2C282.041 19.2 280.758 19.6767 279.841 20.63C278.961 21.5833 278.521 22.9583 278.521 24.755C278.521 25.4517 278.613 26.1117 278.796 26.735Z" fill="white"/>
</svg>
