<svg width="33" height="33" viewBox="0 0 33 33" fill="none" xmlns="http://www.w3.org/2000/svg">
<path fill-rule="evenodd" clip-rule="evenodd" d="M5.45962 25.5721C4.74555 26.336 4.29827 27.3508 4.29827 28.4698C4.29827 30.8135 6.22271 32.7384 8.56838 32.7384C10.914 32.7384 12.8406 30.8135 12.8406 28.4698C12.8406 27.6902 12.6109 26.968 12.2401 26.3366H19.8462C19.4754 26.968 19.2478 27.6902 19.2478 28.4698C19.2478 30.8135 21.1723 32.7384 23.5179 32.7384C25.8636 32.7384 27.7901 30.8135 27.7901 28.4698C27.7901 26.1262 25.8636 24.2034 23.5179 24.2034H7.50502C6.89512 24.2034 6.42765 23.7419 6.43541 23.1222C6.44303 22.5136 6.90267 22.0701 7.50502 22.0701L24.5813 22.0638C25.8845 22.0638 27.0719 21.2717 27.5587 20.0556L31.8288 9.38732C32.6566 7.31914 31.0803 5.00423 28.8535 5.00423H24.5834C23.1404 4.98407 23.1404 7.15722 24.5834 7.13747H28.8535C29.6448 7.13747 30.1409 7.86389 29.848 8.59573L25.5779 19.264C25.4158 19.669 25.0254 19.9306 24.5813 19.9306L7.50502 19.9348C7.13004 19.9348 6.77355 20.0142 6.43749 20.1348V7.13747H20.3133C21.7563 7.15762 21.7563 4.98447 20.3133 5.00423H6.43332V3.93553C6.43332 2.18126 4.99068 0.739835 3.23491 0.739835H1.09777C1.06096 0.737926 1.02408 0.737926 0.987268 0.739835C-0.325657 0.904535 -0.225165 2.83689 1.09777 2.86474H3.23491C3.84477 2.86474 4.2982 3.32619 4.29827 3.93553L4.30035 23.1118C4.30046 24.1099 4.75703 24.9816 5.45962 25.5721ZM8.56838 26.3366C9.76018 26.3366 10.7034 27.2791 10.7034 28.4698C10.7034 29.6607 9.76018 30.6052 8.56838 30.6052C7.37657 30.6052 6.43332 29.6607 6.43332 28.4698C6.43332 27.2791 7.37657 26.3366 8.56838 26.3366ZM23.5179 26.3366C24.7097 26.3366 25.653 27.2791 25.653 28.4698C25.653 29.6607 24.7097 30.6052 23.5179 30.6052C22.3261 30.6052 21.3829 29.6607 21.3829 28.4698C21.3829 27.2791 22.3261 26.3366 23.5179 26.3366Z" fill="#173C1C"/>
</svg>
