<svg width="216" height="30" viewBox="0 0 216 30" fill="none" xmlns="http://www.w3.org/2000/svg">
<path d="M26.8483 28.8751H20.0458V20.552H19.8457L18.6052 27.3145C18.4185 28.3549 17.7916 28.8751 16.7246 28.8751H13.9635C9.66861 28.8751 6.3874 27.6747 4.11989 25.2738C1.85239 22.8462 0.718636 19.3249 0.718636 14.7099C0.718636 10.1215 1.85239 6.62688 4.11989 4.226C6.3874 1.79843 9.66861 0.584653 13.9635 0.584653C17.9917 0.584653 21.1128 1.63838 23.327 3.74582C25.5411 5.85327 26.7149 8.89439 26.8483 12.8692H19.8057C19.6723 10.9218 19.1254 9.49461 18.1651 8.58761C17.2314 7.65393 15.8309 7.18709 13.9635 7.18709C11.8027 7.18709 10.2155 7.78731 9.20177 8.98776C8.21474 10.1882 7.72122 12.0956 7.72122 14.7099C7.72122 17.3242 8.21474 19.2449 9.20177 20.472C10.1888 21.6724 11.7627 22.2727 13.9235 22.2727H14.2436C14.7505 22.2727 15.164 22.1793 15.4841 21.9926C15.8042 21.8058 16.031 21.459 16.1643 20.9522L16.2844 20.552H13.1632V14.1497H21.0461C24.9142 14.1497 26.8483 16.0837 26.8483 19.9518V28.8751ZM28.5508 28.8751V8.06742H35.5534V15.4702H35.7535C35.9402 12.9626 36.4737 11.1085 37.354 9.9081C38.2344 8.68098 39.4215 8.06742 40.9154 8.06742H43.9165V14.6699H39.7149C36.9406 14.6699 35.5534 16.1371 35.5534 19.0715V28.8751H28.5508ZM55.407 28.8751C51.9657 28.8751 49.2847 27.9548 47.364 26.1141C45.47 24.2734 44.5229 21.6858 44.5229 18.3512C44.5229 15.0433 45.4299 12.469 47.244 10.6284C49.058 8.78768 51.6189 7.86734 54.9268 7.86734C56.394 7.86734 57.7012 8.05408 58.8482 8.42755C59.9953 8.77434 60.969 9.26786 61.7693 9.9081C62.5696 10.5483 63.1832 11.3086 63.61 12.1889C64.0368 13.0693 64.2502 14.0163 64.2502 15.03C64.2502 16.0704 64.0235 17.1108 63.57 18.1511C63.1432 19.1649 62.5296 19.9518 61.7293 20.512H51.9257C52.5392 21.6858 54.0598 22.2727 56.4874 22.2727H63.3299V28.8751H55.407ZM51.7256 19.9518C52.6059 19.7917 53.3929 19.565 54.0865 19.2716C54.8067 18.9514 55.4203 18.6046 55.9272 18.2312C56.434 17.8577 56.8208 17.4709 57.0876 17.0707C57.381 16.6706 57.5278 16.2838 57.5278 15.9103C57.5278 15.5102 57.3544 15.1767 57.0076 14.9099C56.6608 14.6165 56.0872 14.4698 55.2869 14.4698C54.0865 14.4698 53.1528 14.8166 52.4859 15.5102C51.8457 16.2038 51.5255 17.2041 51.5255 18.5113C51.5255 19.0181 51.5922 19.4983 51.7256 19.9518ZM76.3522 28.8751C72.9109 28.8751 70.2299 27.9548 68.3092 26.1141C66.4152 24.2734 65.4682 21.6858 65.4682 18.3512C65.4682 15.0433 66.3752 12.469 68.1892 10.6284C70.0032 8.78768 72.5641 7.86734 75.872 7.86734C77.3392 7.86734 78.6464 8.05408 79.7935 8.42755C80.9406 8.77434 81.9143 9.26786 82.7146 9.9081C83.5149 10.5483 84.1284 11.3086 84.5552 12.1889C84.9821 13.0693 85.1955 14.0163 85.1955 15.03C85.1955 16.0704 84.9687 17.1108 84.5152 18.1511C84.0884 19.1649 83.4748 19.9518 82.6745 20.512H72.8709C73.4845 21.6858 75.005 22.2727 77.4326 22.2727H84.2751V28.8751H76.3522ZM72.6708 19.9518C73.5512 19.7917 74.3381 19.565 75.0317 19.2716C75.752 18.9514 76.3655 18.6046 76.8724 18.2312C77.3793 17.8577 77.7661 17.4709 78.0328 17.0707C78.3263 16.6706 78.473 16.2838 78.473 15.9103C78.473 15.5102 78.2996 15.1767 77.9528 14.9099C77.606 14.6165 77.0325 14.4698 76.2322 14.4698C75.0317 14.4698 74.098 14.8166 73.4311 15.5102C72.7909 16.2038 72.4708 17.2041 72.4708 18.5113C72.4708 19.0181 72.5375 19.4983 72.6708 19.9518ZM86.8536 8.06742H93.8562V12.0289H94.0562C94.4297 10.8551 95.07 9.86808 95.977 9.06779C96.884 8.26749 98.1511 7.86734 99.7784 7.86734C101.752 7.86734 103.313 8.52092 104.46 9.82807C105.607 11.1352 106.181 13.0959 106.181 15.7102V28.8751H99.1781V15.2701C99.1781 13.5094 98.2845 12.6291 96.4972 12.6291C94.7365 12.6291 93.8562 13.5094 93.8562 15.2701V28.8751H86.8536V8.06742ZM108.307 0.864755H115.309V12.0689H124.153V0.864755H131.155V28.8751H124.153V18.6713H115.309V28.8751H108.307V0.864755ZM143.121 29.0752C139.893 29.0752 137.372 28.1415 135.558 26.2741C133.771 24.3801 132.877 21.7658 132.877 18.4312C132.877 15.0967 133.771 12.5091 135.558 10.6684C137.372 8.80102 139.893 7.86734 143.121 7.86734C144.721 7.86734 146.162 8.10743 147.442 8.58761C148.723 9.06779 149.803 9.77471 150.683 10.7084C151.564 11.6154 152.231 12.7225 152.684 14.0296C153.164 15.3101 153.404 16.7773 153.404 18.4312C153.404 20.0852 153.164 21.5791 152.684 22.9129C152.231 24.2201 151.564 25.3405 150.683 26.2741C149.803 27.1811 148.723 27.8747 147.442 28.3549C146.162 28.8351 144.721 29.0752 143.121 29.0752ZM143.161 22.4727C145.321 22.4727 146.402 21.1389 146.402 18.4713C146.402 17.1108 146.135 16.1104 145.602 15.4702C145.095 14.8032 144.281 14.4698 143.161 14.4698C142.014 14.4698 141.173 14.7899 140.64 15.4301C140.133 16.0704 139.879 17.0841 139.879 18.4713C139.879 19.8318 140.133 20.8455 140.64 21.5124C141.173 22.1526 142.014 22.4727 143.161 22.4727ZM161.083 29.0752C159.109 29.0752 157.549 28.4216 156.401 27.1145C155.254 25.8073 154.681 23.8466 154.681 21.2323V8.06742H161.683V21.6724C161.683 23.4331 162.577 24.3134 164.364 24.3134C166.125 24.3134 167.005 23.4331 167.005 21.6724V8.06742H174.008V28.8751H167.005V24.9136H166.805C166.432 26.0874 165.792 27.0744 164.885 27.8747C163.978 28.675 162.71 29.0752 161.083 29.0752ZM176.066 22.2727H187.911C188.177 22.2727 188.311 22.1393 188.311 21.8725C188.311 21.6058 188.177 21.4724 187.911 21.4724L181.268 21.1122C179.427 21.0055 178.027 20.4453 177.067 19.4316C176.133 18.3912 175.666 16.8707 175.666 14.8699C175.666 12.6558 176.24 10.9752 177.387 9.82807C178.534 8.6543 180.228 8.06742 182.469 8.06742H194.113V14.6699H182.269C182.002 14.6699 181.868 14.8032 181.868 15.07C181.868 15.15 181.895 15.2434 181.948 15.3501C182.028 15.4301 182.135 15.4702 182.269 15.4702L188.911 15.8303C190.752 15.937 192.139 16.5105 193.073 17.5509C194.033 18.5646 194.513 20.0719 194.513 22.0726C194.513 24.2867 193.94 25.9807 192.792 27.1545C191.645 28.3016 189.951 28.8751 187.711 28.8751H176.066V22.2727ZM206.596 28.8751C203.154 28.8751 200.473 27.9548 198.553 26.1141C196.659 24.2734 195.712 21.6858 195.712 18.3512C195.712 15.0433 196.619 12.469 198.433 10.6284C200.247 8.78768 202.808 7.86734 206.115 7.86734C207.583 7.86734 208.89 8.05408 210.037 8.42755C211.184 8.77434 212.158 9.26786 212.958 9.9081C213.758 10.5483 214.372 11.3086 214.799 12.1889C215.226 13.0693 215.439 14.0163 215.439 15.03C215.439 16.0704 215.212 17.1108 214.759 18.1511C214.332 19.1649 213.718 19.9518 212.918 20.512H203.114C203.728 21.6858 205.248 22.2727 207.676 22.2727H214.519V28.8751H206.596ZM202.914 19.9518C203.795 19.7917 204.582 19.565 205.275 19.2716C205.995 18.9514 206.609 18.6046 207.116 18.2312C207.623 17.8577 208.01 17.4709 208.276 17.0707C208.57 16.6706 208.716 16.2838 208.716 15.9103C208.716 15.5102 208.543 15.1767 208.196 14.9099C207.849 14.6165 207.276 14.4698 206.476 14.4698C205.275 14.4698 204.341 14.8166 203.675 15.5102C203.034 16.2038 202.714 17.2041 202.714 18.5113C202.714 19.0181 202.781 19.4983 202.914 19.9518Z" fill="#153323"/>
</svg>
