<svg width="39" height="39" viewBox="0 0 39 39" fill="none" xmlns="http://www.w3.org/2000/svg">
<path d="M19.0321 2.23151C28.7006 2.23151 36.5389 10.0698 36.5389 19.7383C36.5389 29.4069 28.7007 37.2452 19.0321 37.2452C9.36357 37.2451 1.52527 29.4069 1.52527 19.7383C1.5253 10.0698 9.36359 2.23154 19.0321 2.23151Z" stroke="#173C1C" stroke-width="3.00111" stroke-linecap="round" stroke-linejoin="round"/>
<path d="M4.07788 14.022H33.9861" stroke="#173C1C" stroke-width="3.00111" stroke-linecap="round" stroke-linejoin="round"/>
<path d="M4.07788 25.4548H33.9861" stroke="#173C1C" stroke-width="3.00111" stroke-linecap="round" stroke-linejoin="round"/>
<path d="M19.0319 2.23151C20.4864 2.23151 21.7471 2.92582 22.7565 3.92194C23.7594 4.91172 24.594 6.26973 25.2623 7.82916C26.6013 10.9534 27.3922 15.1651 27.3922 19.7383C27.3922 24.3116 26.6013 28.5233 25.2623 31.6475C24.594 33.207 23.7594 34.5649 22.7565 35.5547C21.7471 36.5509 20.4864 37.2452 19.0319 37.2452C17.5775 37.2451 16.3175 36.5507 15.3082 35.5547C14.3053 34.565 13.4707 33.2069 12.8024 31.6475C11.4634 28.5233 10.6715 24.3116 10.6715 19.7383C10.6715 15.1651 11.4634 10.9534 12.8024 7.82916C13.4707 6.26979 14.3053 4.9117 15.3082 3.92194C16.3175 2.92599 17.5776 2.2316 19.0319 2.23151Z" stroke="#173C1C" stroke-width="3.00111" stroke-linecap="round" stroke-linejoin="round"/>
</svg>
